<svg xmlns="http://www.w3.org/2000/svg" viewBox="0 0 3120 500"><svg enable-background="new 0 0 780 500" height="500" viewBox="0 0 780 500" width="780" xmlns="http://www.w3.org/2000/svg" x="0"><path d="m449.01 250c0 99.143-80.371 179.5-179.51 179.5s-179.5-80.361-179.5-179.5c0-99.133 80.362-179.5 179.5-179.5 99.137 0 179.51 80.371 179.51 179.5" fill="#d9222a" /><path d="m510.49 70.496c-46.379 0-88.643 17.596-120.5 46.467-6.49 5.889-12.548 12.237-18.125 18.996h36.267c4.965 6.037 9.536 12.387 13.685 19.012h-63.635c-3.827 6.122-7.281 12.469-10.342 19.008h84.313c2.894 6.185 5.431 12.53 7.601 19.004h-99.513c-2.09 6.234-3.832 12.58-5.217 19.008h109.94c2.689 12.49 4.045 25.231 4.042 38.008 0 19.935-3.254 39.112-9.254 57.021h-99.513c2.164 6.477 4.7 12.824 7.596 19.008h84.316c-3.063 6.541-6.519 12.889-10.347 19.013h-63.625c4.147 6.62 8.719 12.966 13.685 18.996h36.259c-5.57 6.772-11.63 13.127-18.13 19.013 31.857 28.866 74.117 46.454 120.5 46.454 99.139 0 179.51-80.361 179.51-179.5 0-99.129-80.371-179.5-179.51-179.5" fill="#ee9f2d" /><path d="m666.07 350.06c0-3.199 2.592-5.801 5.796-5.801s5.796 2.602 5.796 5.801-2.592 5.801-5.796 5.801-5.796-2.602-5.796-5.801zm5.796 4.408c2.434-.001 4.407-1.974 4.408-4.408 0-2.432-1.971-4.402-4.402-4.404h-.006c-2.429-.003-4.4 1.963-4.404 4.391v.014c-.002 2.433 1.968 4.406 4.4 4.408.001-.001.003-.001.004-.001zm-.783-1.86h-1.187v-5.096h2.149c.45 0 .908 0 1.305.254.413.279.646.771.646 1.279 0 .571-.338 1.104-.884 1.312l.938 2.25h-1.315l-.779-2.017h-.871zm0-2.89h.658c.246 0 .505.021.726-.1.195-.125.296-.359.296-.584-.005-.209-.112-.402-.288-.518-.207-.129-.536-.101-.758-.101h-.634zm-443.5-80.063c-2.046-.238-2.945-.301-4.35-.301-11.046 0-16.638 3.787-16.638 11.268 0 4.611 2.729 7.545 6.987 7.545 7.939 0 13.659-7.559 14.001-18.512zm14.171 32.996h-16.146l.371-7.676c-4.926 6.065-11.496 8.949-20.426 8.949-10.563 0-17.804-8.25-17.804-20.229 0-18.024 12.596-28.541 34.217-28.541 2.208 0 5.042.199 7.941.57.604-2.441.763-3.488.763-4.801 0-4.908-3.396-6.737-12.5-6.737-9.533-.108-17.396 2.271-20.625 3.333.204-1.229 2.7-16.659 2.7-16.659 9.712-2.846 16.116-3.917 23.325-3.917 16.732 0 25.596 7.513 25.579 21.712.033 3.805-.597 8.5-1.579 14.671-1.691 10.734-5.32 33.721-5.816 39.325zm-62.158 0h-19.487l11.162-69.997-24.925 69.997h-13.279l-1.642-69.597-11.733 69.597h-18.242l15.237-91.056h28.021l1.7 50.968 17.092-50.968h31.167zm354.97-32.996c-2.037-.238-2.941-.301-4.342-.301-11.041 0-16.634 3.787-16.634 11.268 0 4.611 2.726 7.545 6.983 7.545 7.94 0 13.664-7.559 13.993-18.512zm14.184 32.996h-16.146l.366-7.676c-4.926 6.065-11.5 8.949-20.422 8.949-10.565 0-17.8-8.25-17.8-20.229 0-18.024 12.588-28.541 34.213-28.541 2.208 0 5.037.199 7.934.57.604-2.441.763-3.488.763-4.801 0-4.908-3.392-6.737-12.496-6.737-9.533-.108-17.387 2.271-20.629 3.333.204-1.229 2.709-16.659 2.709-16.659 9.712-2.846 16.112-3.917 23.313-3.917 16.74 0 25.604 7.513 25.587 21.712.032 3.805-.597 8.5-1.579 14.671-1.684 10.734-5.321 33.721-5.813 39.325zm-220.39-1.125c-5.333 1.679-9.491 2.398-14 2.398-9.962 0-15.399-5.725-15.399-16.267-.142-3.271 1.433-11.88 2.671-19.737 1.125-6.917 8.449-50.529 8.449-50.529h19.371l-2.263 11.208h11.699l-2.642 17.796h-11.742c-2.25 14.083-5.454 31.625-5.491 33.95 0 3.816 2.037 5.483 6.671 5.483 2.221 0 3.94-.227 5.254-.7zm59.392-.6c-6.654 2.034-13.075 3.017-19.879 3-21.684-.021-32.987-11.346-32.987-33.032 0-25.313 14.38-43.947 33.899-43.947 15.971 0 26.171 10.433 26.171 26.796 0 5.429-.7 10.729-2.388 18.212h-38.574c-1.305 10.741 5.57 15.217 16.837 15.217 6.935 0 13.188-1.429 20.142-4.663zm-10.888-43.9c.107-1.543 2.055-13.217-9.013-13.217-6.171 0-10.583 4.704-12.38 13.217zm-123.42-5.017c0 9.367 4.542 15.826 14.842 20.676 7.892 3.709 9.112 4.81 9.112 8.17 0 4.617-3.479 6.701-11.191 6.701-5.813 0-11.221-.908-17.458-2.922 0 0-2.563 16.321-2.68 17.102 4.43.967 8.38 1.861 20.279 2.19 20.563 0 30.059-7.829 30.059-24.75 0-10.175-3.976-16.146-13.737-20.634-8.171-3.75-9.108-4.587-9.108-8.045 0-4.004 3.237-6.046 9.537-6.046 3.825 0 9.05.408 14 1.112l2.775-17.175c-5.046-.8-12.696-1.442-17.15-1.442-21.801.001-29.347 11.388-29.28 25.063m229.09-23.116c5.412 0 10.458 1.421 17.412 4.921l3.188-19.763c-2.854-1.121-12.904-7.7-21.417-7.7-13.041 0-24.065 6.471-31.82 17.15-11.309-3.746-15.958 3.825-21.657 11.367l-5.063 1.179c.383-2.483.729-4.95.612-7.446h-17.896c-2.445 22.917-6.778 46.128-10.171 69.075l-.884 4.976h19.496c3.254-21.143 5.037-34.68 6.121-43.842l7.341-4.084c1.097-4.078 4.529-5.458 11.417-5.291-.926 5.008-1.389 10.091-1.383 15.184 0 24.225 13.07 39.308 34.05 39.308 5.404 0 10.041-.712 17.221-2.658l3.43-20.759c-6.458 3.181-11.759 4.677-16.559 4.677-11.329 0-18.184-8.363-18.184-22.185 0-20.051 10.196-34.109 24.746-34.109" /><path d="m185.21 297.24h-19.491l11.171-69.988-24.926 69.988h-13.283l-1.642-69.588-11.733 69.588h-18.241l15.237-91.042h28.021l.788 56.362 18.904-56.362h30.267z" fill="#fff" /><path d="m647.52 211.6-4.321 26.309c-5.329-7.013-11.054-12.088-18.612-12.088-9.833 0-18.783 7.455-24.642 18.425-8.158-1.692-16.597-4.563-16.597-4.563l-.004.067c.658-6.134.921-9.875.862-11.146h-17.9c-2.438 22.917-6.771 46.128-10.157 69.075l-.893 4.976h19.492c2.633-17.096 4.648-31.291 6.133-42.551 6.658-6.016 9.992-11.266 16.721-10.916-2.979 7.205-4.725 15.503-4.725 24.017 0 18.513 9.366 30.725 23.533 30.725 7.142 0 12.621-2.462 17.967-8.171l-.913 6.884h18.435l14.842-91.042zm-24.371 73.941c-6.634 0-9.983-4.908-9.983-14.596 0-14.555 6.271-24.875 15.112-24.875 6.695 0 10.32 5.104 10.32 14.509.001 14.679-6.37 24.962-15.449 24.962z" /><path d="m233.19 264.26c-2.042-.236-2.946-.299-4.346-.299-11.046 0-16.634 3.787-16.634 11.266 0 4.604 2.729 7.547 6.979 7.547 7.947-.001 13.668-7.559 14.001-18.514zm14.178 32.984h-16.146l.367-7.663c-4.921 6.054-11.5 8.95-20.421 8.95-10.567 0-17.805-8.25-17.805-20.229 0-18.032 12.592-28.542 34.217-28.542 2.208 0 5.042.2 7.938.571.604-2.441.763-3.487.763-4.808 0-4.909-3.392-6.729-12.496-6.729-9.537-.108-17.396 2.271-20.629 3.321.204-1.225 2.7-16.637 2.7-16.637 9.708-2.858 16.12-3.929 23.32-3.929 16.737 0 25.604 7.517 25.588 21.704.029 3.821-.604 8.513-1.584 14.675-1.687 10.724-5.319 33.724-5.812 39.316zm261.38-88.592-3.191 19.767c-6.95-3.496-12-4.92-17.407-4.92-14.551 0-24.75 14.058-24.75 34.106 0 13.821 6.857 22.181 18.184 22.181 4.8 0 10.096-1.492 16.554-4.675l-3.421 20.75c-7.184 1.957-11.816 2.67-17.225 2.67-20.977 0-34.051-15.084-34.051-39.309 0-32.55 18.059-55.3 43.888-55.3 8.507.001 18.561 3.609 21.419 4.73m31.443 55.608c-2.041-.236-2.941-.299-4.347-.299-11.041 0-16.633 3.787-16.633 11.266 0 4.604 2.729 7.547 6.983 7.547 7.938-.001 13.663-7.559 13.997-18.514zm14.178 32.984h-16.15l.371-7.663c-4.925 6.054-11.5 8.95-20.421 8.95-10.563 0-17.804-8.25-17.804-20.229 0-18.032 12.596-28.542 34.212-28.542 2.213 0 5.042.2 7.941.571.601-2.441.763-3.487.763-4.808 0-4.909-3.393-6.729-12.495-6.729-9.533-.108-17.396 2.271-20.63 3.321.204-1.225 2.704-16.637 2.704-16.637 9.709-2.858 16.116-3.929 23.316-3.929 16.741 0 25.604 7.517 25.583 21.704.033 3.821-.596 8.513-1.579 14.675-1.682 10.724-5.323 33.724-5.811 39.316zm-220.39-1.121c-5.338 1.679-9.496 2.408-14 2.408-9.962 0-15.399-5.726-15.399-16.268-.138-3.279 1.438-11.88 2.675-19.736 1.12-6.926 8.445-50.534 8.445-50.534h19.368l-2.26 11.212h9.941l-2.646 17.788h-9.975c-2.25 14.092-5.463 31.62-5.496 33.95 0 3.83 2.041 5.482 6.671 5.482 2.221 0 3.938-.216 5.254-.691zm59.391-.592c-6.65 2.033-13.079 3.012-19.879 3-21.685-.021-32.987-11.346-32.987-33.033 0-25.321 14.379-43.95 33.899-43.95 15.971 0 26.171 10.429 26.171 26.8 0 5.434-.7 10.733-2.384 18.212h-38.574c-1.306 10.741 5.569 15.222 16.837 15.222 6.93 0 13.188-1.435 20.138-4.677zm-10.891-43.912c.116-1.538 2.06-13.217-9.013-13.217-6.167 0-10.579 4.717-12.375 13.217zm-123.42-5.005c0 9.367 4.542 15.818 14.842 20.675 7.892 3.709 9.112 4.812 9.112 8.172 0 4.616-3.483 6.699-11.188 6.699-5.816 0-11.225-.908-17.467-2.921 0 0-2.554 16.321-2.671 17.101 4.421.967 8.375 1.85 20.275 2.191 20.566 0 30.059-7.829 30.059-24.746 0-10.18-3.971-16.15-13.737-20.637-8.167-3.759-9.113-4.584-9.113-8.046 0-4 3.246-6.059 9.542-6.059 3.821 0 9.046.421 14.004 1.125l2.771-17.179c-5.042-.8-12.692-1.441-17.146-1.441-21.804 0-29.346 11.379-29.283 25.066m398.45 50.63h-18.438l.917-6.893c-5.347 5.717-10.825 8.18-17.968 8.18-14.166 0-23.528-12.213-23.528-30.726 0-24.63 14.521-45.392 31.708-45.392 7.559 0 13.279 3.087 18.604 10.096l4.325-26.308h19.221zm-28.746-17.109c9.075 0 15.45-10.283 15.45-24.953 0-9.405-3.629-14.509-10.325-14.509-8.837 0-15.115 10.315-15.115 24.875-.001 9.686 3.357 14.587 9.99 14.587zm-56.842-56.929c-2.441 22.917-6.773 46.13-10.162 69.063l-.892 4.976h19.491c6.972-45.275 8.658-54.117 19.588-53.009 1.742-9.267 4.982-17.383 7.399-21.479-8.163-1.7-12.721 2.913-18.688 11.675.471-3.788 1.333-7.467 1.162-11.225zm-160.42 0c-2.446 22.917-6.779 46.13-10.167 69.063l-.888 4.976h19.5c6.963-45.275 8.646-54.117 19.57-53.009 1.75-9.267 4.991-17.383 7.399-21.479-8.154-1.7-12.717 2.913-18.679 11.675.471-3.788 1.324-7.467 1.162-11.225zm254.57 68.241c-.004-3.199 2.586-5.795 5.784-5.799h.012c3.197-.004 5.793 2.586 5.796 5.783v.016c-.001 3.201-2.595 5.795-5.796 5.797-3.201-.002-5.795-2.596-5.796-5.797zm5.796 4.405c2.431.002 4.402-1.969 4.403-4.399v-.004c.003-2.433-1.968-4.406-4.399-4.408h-.004c-2.435.001-4.407 1.974-4.408 4.408.002 2.432 1.975 4.403 4.408 4.403zm-.784-1.871h-1.188v-5.082h2.153c.446 0 .909.009 1.296.254.417.283.654.767.654 1.274 0 .575-.337 1.112-.888 1.317l.941 2.236h-1.32l-.779-2.009h-.87zm0-2.879h.653c.246 0 .513.019.729-.1.196-.125.296-.361.296-.588-.009-.21-.114-.404-.287-.523-.204-.117-.542-.084-.763-.084h-.629z" fill="#fff" /></svg><svg enable-background="new 0 0 780 500" height="500" viewBox="0 0 780 500" width="780" xmlns="http://www.w3.org/2000/svg" x="780"><path d="m293.2 348.73 33.359-195.76h53.358l-33.384 195.76zm246.11-191.54c-10.569-3.966-27.135-8.222-47.821-8.222-52.726 0-89.863 26.551-90.181 64.604-.297 28.129 26.515 43.822 46.754 53.185 20.771 9.598 27.752 15.716 27.652 24.283-.133 13.123-16.586 19.115-31.924 19.115-21.355 0-32.701-2.967-50.225-10.273l-6.878-3.111-7.487 43.822c12.463 5.467 35.508 10.199 59.438 10.445 56.09 0 92.502-26.248 92.916-66.885.199-22.27-14.016-39.215-44.801-53.188-18.65-9.056-30.072-15.099-29.951-24.269 0-8.137 9.668-16.838 30.56-16.838 17.446-.271 30.088 3.534 39.936 7.5l4.781 2.259zm137.31-4.223h-41.23c-12.772 0-22.332 3.486-27.94 16.234l-79.245 179.4h56.031s9.159-24.121 11.231-29.418c6.123 0 60.555.084 68.336.084 1.596 6.854 6.492 29.334 6.492 29.334h49.512l-43.187-195.64zm-65.417 126.41c4.414-11.279 21.26-54.724 21.26-54.724-.314.521 4.381-11.334 7.074-18.684l3.606 16.878s10.217 46.729 12.353 56.527h-44.293zm-363.3-126.41-52.239 133.5-5.565-27.129c-9.726-31.274-40.025-65.157-73.898-82.12l47.767 171.2 56.455-.063 84.004-195.39-56.524-.001" fill="#0e4595" /><path d="m146.92 152.96h-86.041l-.682 4.073c66.939 16.204 111.23 55.363 129.62 102.42l-18.709-89.96c-3.229-12.396-12.597-16.096-24.186-16.528" fill="#f2ae14" /></svg><svg enable-background="new 0 0 780 501" height="500" viewBox="0 0 780 501" width="780" xmlns="http://www.w3.org/2000/svg" x="1560"><path d="m725 0h-670c-30.327 0-55 24.673-55 55v391c0 30.327 24.673 55 55 55h670c30.325 0 55-24.673 55-55v-391c0-30.327-24.675-55-55-55z" fill="#fff" /><path d="m333.56 399.69-286.53.104v-.69c0-.379.457-2.838 1.015-5.465.559-2.626 1.427-6.804 1.931-9.283.502-2.479 1.362-6.692 1.909-9.364 1.346-6.527 2.676-13.058 3.989-19.592.517-2.576 1.378-6.79 1.916-9.363.686-3.293 1.364-6.588 2.037-9.884.582-2.86 1.467-7.231 1.967-9.711s1.294-6.303 1.765-8.495c.47-2.193 1.071-5.158 1.333-6.59.263-1.43 1.114-5.645 1.891-9.363.654-3.117 1.29-6.238 1.905-9.363.271-1.43 1.132-5.645 1.914-9.363.781-3.718 1.639-7.932 1.907-9.363.268-1.43 1.131-5.644 1.917-9.363.788-3.72 1.638-7.854 1.888-9.189.252-1.335.94-4.768 1.53-7.629.589-2.861 1.705-8.245 2.479-11.964.775-3.72 2.099-10.196 2.942-14.394.845-4.195 1.854-9.188 2.243-11.096 1.143-5.608 2.296-11.215 3.461-16.818.574-2.768 1.507-7.293 2.074-10.059.568-2.766 1.442-7.057 1.943-9.536s1.356-6.614 1.9-9.19c.544-2.574 1.48-7.101 2.08-10.057.6-2.957 1.605-7.482 2.233-10.057s1.516-5.696 1.974-6.935c.457-1.241 1.72-3.927 2.806-5.973l1.975-3.717 1.795-2.352c.986-1.292 2.749-3.335 3.916-4.539s3.135-3.016 4.376-4.026c1.239-1.011 3.034-2.375 3.987-3.031.954-.656 2.827-1.805 4.162-2.553s3.209-1.727 4.162-2.176c.954-.449 2.905-1.27 4.335-1.823 1.43-.552 4.161-1.479 6.068-2.058 1.907-.58 5.488-1.454 7.957-1.941 2.469-.488 6.369-1.14 8.67-1.449l4.181-.562 286.71-.108 286.71-.111v.69c0 .379-.46 2.838-1.021 5.464-.709 3.323-1.405 6.648-2.088 9.977-.588 2.861-1.441 6.997-1.901 9.19-.65 3.12-1.295 6.241-1.933 9.363-.604 2.957-1.532 7.483-2.063 10.057-.531 2.575-1.392 6.789-1.912 9.363-.52 2.576-1.386 6.789-1.923 9.363-.626 3.004-1.244 6.01-1.854 9.018-.481 2.384-1.353 6.675-1.936 9.536-.584 2.86-1.521 7.387-2.083 10.057s-1.418 6.806-1.902 9.19c-.485 2.384-1.356 6.675-1.938 9.535-.582 2.861-1.517 7.388-2.079 10.059-.562 2.67-1.398 6.727-1.861 9.016-1.283 6.359-2.575 12.718-3.874 19.074-.47 2.288-1.307 6.346-1.86 9.016-.709 3.408-1.411 6.818-2.108 10.23-.605 2.957-1.471 7.169-1.923 9.364-.454 2.192-1.301 6.327-1.885 9.188-.684 3.354-1.371 6.705-2.063 10.057-.551 2.671-1.415 6.885-1.921 9.365-.504 2.479-1.383 6.771-1.95 9.535-.568 2.766-1.497 7.291-2.062 10.057-.566 2.766-1.414 6.902-1.885 9.191-.642 3.119-1.278 6.24-1.912 9.362-.683 3.343-1.383 6.683-2.102 10.019l-1.044 4.817-1.244 3.332c-.684 1.833-1.713 4.269-2.287 5.414-.571 1.144-1.738 3.163-2.592 4.487-.854 1.322-2.044 3.018-2.644 3.767-.601.749-2.407 2.683-4.018 4.299l-2.923 2.935-2.814 2c-1.548 1.101-3.217 2.22-3.705 2.486-.49.268-2.355 1.221-4.146 2.115-1.789.896-4.317 2.037-5.617 2.534-1.3.499-3.875 1.346-5.722 1.883-1.847.539-3.827 1.069-4.398 1.179-.573.109-2.559.52-4.414.914-1.855.393-5.601.979-8.322 1.303l-4.95.59-286.53.1zm-101.94-74.115h7.456l.21-.549c.117-.302.211-1.011.211-1.576s.246-2.619.547-4.565c.3-1.948 1.004-6.427 1.566-9.955.561-3.529 1.401-8.835 1.867-11.791.443-2.8.864-5.604 1.265-8.41.229-1.669.508-3.034.621-3.034.112 0 .594.737 1.071 1.639l.866 1.639 1.922 1.938 1.923 1.937 2.366.948 2.367.947 2.82.365 2.821.365 3.579-.219 3.58-.221 3.876-1.002 3.877-1.005 2.08-.948c1.145-.522 3.173-1.662 4.508-2.531l2.428-1.581 2.263-2.263c1.245-1.242 3.001-3.238 3.901-4.434.902-1.193 1.639-2.258 1.639-2.364s.443-.846.984-1.644c.541-.797 1.647-3.012 2.459-4.918.813-1.907 2.081-5.34 2.821-7.629l1.344-4.162.695-3.604c.382-1.982.874-5.26 1.093-7.283l.397-3.678-.23-3.121-.229-3.121-.725-3.121-.723-3.121-1.172-2.336-1.171-2.338-2.263-2.398-2.262-2.398-2.677-1.384-2.677-1.383-2.948-.707-2.948-.705-2.948-.216-2.947-.217-3.283.377-3.285.378-2.679.685-2.68.684-2.329 1.078c-1.28.592-3.144 1.599-4.14 2.236-.997.639-2.026 1.371-2.286 1.63-.259.259-.882.74-1.382 1.066l-.911.597.636-3.047c.351-1.675.643-3.24.651-3.48l.014-.433h-12.716l-1.114 7.022c-.614 3.863-1.582 9.832-2.152 13.266-1.257 7.574-2.529 15.145-3.816 22.714-.567 3.337-1.504 8.644-2.083 11.791s-1.426 7.751-1.884 10.231c-.457 2.479-1.319 7.16-1.913 10.402-.701 3.816-1.409 7.631-2.124 11.444-.677 3.586-1.369 7.169-2.074 10.75-.568 2.86-1.116 5.554-1.221 5.981l-.189.781h7.457zm32.1-40.095-2.895.175-1.892-.336-1.893-.334-1.922-.877-1.923-.878-1.342-1.282-1.343-1.281-.775-1.734c-.427-.954-.974-2.574-1.217-3.602l-.442-1.865.177-2.989.178-2.987.893-4.683c.674-3.579 1.328-7.163 1.96-10.75.587-3.338 1.477-8.229 1.976-10.869l.907-4.8 1.988-1.654c1.094-.908 2.826-2.129 3.85-2.709l1.86-1.056 2.427-.751 2.428-.752 3.121-.184 3.121-.183 2.542.542 2.541.541 1.794.826 1.793.826 1.504 1.512 1.505 1.512.81 1.602c.447.881 1.074 2.604 1.393 3.83l.581 2.229-.178 6.59-.178 6.59-.89 3.895c-.49 2.142-1.422 5.419-2.072 7.281l-1.181 3.389-1.448 2.742c-.796 1.509-2.023 3.547-2.727 4.529s-1.827 2.258-2.495 2.83c-.809.688-1.637 1.352-2.484 1.991l-1.271.949-2.943 1.001-2.943 1.001zm72.011 9.534 3.815.044 3.813-.348c2.1-.191 5.532-.59 7.629-.887 2.1-.295 5.724-.957 8.056-1.469l4.239-.933.212-1.564c.115-.858.592-3.417 1.058-5.685l.847-4.125-.188-.186-.187-.187-1.296.625c-.713.344-2.934 1.166-4.934 1.825l-3.638 1.197-3.818.741-3.818.739-6.068.013-6.069.011-2.081-.664c-1.144-.365-2.827-1.033-3.74-1.486l-1.659-.821-1.369-1.237-1.37-1.238-1.069-1.867-1.069-1.869-.67-2.342-.67-2.344-.004-4.336-.005-4.336.594-3.867.597-3.869 5.218-.244 5.218-.244 19.291.125 19.29.123.582-2.47c.321-1.359.811-4.168 1.089-6.242l.506-3.772.011-3.172.012-3.173-.549-2.368-.551-2.369-.908-1.567c-.498-.862-1.38-2.112-1.955-2.778-.576-.665-1.605-1.604-2.286-2.084-.683-.48-2.02-1.29-2.974-1.797l-1.733-.922-3.029-.73-3.03-.729-3.731-.357-3.734-.356-3.467.226-3.468.225-4.162.8-4.161.8-2.602 1.039c-1.431.57-3.615 1.615-4.854 2.318-1.24.703-2.956 1.847-3.813 2.541-.86.696-2.347 2.049-3.304 3.006-.958.957-2.376 2.676-3.148 3.82-.774 1.146-1.96 3.174-2.638 4.508-.676 1.336-1.557 3.209-1.958 4.162-.399.953-1.129 2.904-1.617 4.334-.49 1.432-1.26 4.162-1.709 6.07-.53 2.311-.988 4.637-1.373 6.977l-.554 3.51.006 5.16.006 5.16.526 2.254c.289 1.24.845 3.113 1.231 4.162s1.104 2.609 1.593 3.468 1.532 2.239 2.318 3.071c.785.83 2.21 2.092 3.164 2.801.952.709 2.65 1.709 3.771 2.219l2.039.928 2.843.688c1.563.378 3.923.826 5.244.996 1.317.165 4.114.325 6.212.348zm6.531-48.853c-9.6 0-17.455-.068-17.455-.153 0-.083.41-1.293.911-2.688.5-1.394 1.38-3.468 1.953-4.609l1.045-2.077 2.293-2.281 2.294-2.283 2.255-1.077c1.239-.593 2.878-1.238 3.641-1.435.764-.196 2.947-.456 4.854-.577l3.469-.223 2.664.343 2.662.342 1.936.886 1.936.887 1.062 1.145c.583.629 1.278 1.557 1.546 2.059l.483.916.32 2.033.321 2.031-.367 3.381-.366 3.383h-17.457zm103.75 48.855 3.817.042 4.332-.514c2.383-.282 5.555-.75 7.05-1.041 1.806-.363 3.599-.789 5.375-1.275 1.462-.414 2.785-.861 2.939-.993.155-.133.567-1.706.918-3.497s.792-4.192.981-5.337c.188-1.145.286-2.142.217-2.217-.07-.075-.325.022-.568.214-.243.194-1.944.91-3.781 1.592l-3.339 1.24-4.756.921-4.756.921-4.042-.137-4.043-.138-2.297-.798-2.297-.797-1.774-1.551-1.773-1.553-1.178-2.145-1.177-2.143-.562-2.869-.561-2.867.005-3.721.003-3.721.681-4.508.682-4.51.721-2.428c.396-1.335.846-2.895.997-3.467.152-.573.787-2.211 1.413-3.643.625-1.43 1.741-3.641 2.479-4.912l1.342-2.312 1.649-1.709 1.648-1.709 1.745-1.082 1.747-1.083 2.242-.691c1.233-.379 3.413-.873 4.843-1.094l2.602-.406 3.813.191 3.815.191 4.508.902 4.509.901 1.833.685c1.008.375 1.877.685 1.932.685.054 0 .296-1.288.537-2.862.242-1.572.672-4.162.956-5.752.285-1.592.449-2.962.364-3.045-.083-.084-1.438-.299-3.01-.479-1.573-.178-5.848-.496-9.498-.707l-6.639-.381-4.683.358-4.681.36-3.469.728-3.468.729-2.233.893c-1.229.491-3.027 1.378-3.998 1.971-.931.566-1.846 1.156-2.745 1.77-.54.382-2.176 1.87-3.638 3.309l-2.655 2.613-1.484 2.172c-.814 1.195-2.225 3.686-3.134 5.536l-1.652 3.364-1.267 3.64c-.696 2.003-1.669 5.28-2.16 7.283l-.895 3.642-.325 3.295-.324 3.295.003 4.334.004 4.334.327 2.522.327 2.522 1.039 2.594 1.038 2.594 1.201 1.875 1.198 1.875 1.907 1.878 1.909 1.877 2.017 1.068 2.02 1.065 2.65.737c1.457.404 3.564.869 4.682 1.032s3.748.316 5.848.339h-.003zm57.044-.128 4.681-.135 2.948-.754 2.948-.756 1.908-.9c1.049-.495 2.765-1.475 3.813-2.176 1.05-.7 2.675-2.032 3.609-2.959.935-.928 2.322-2.51 3.082-3.517s1.428-1.784 1.483-1.728c.058.056-.118 1.658-.389 3.562-.269 1.905-.493 4.438-.497 5.631l-.006 2.166h12.729l.194-4.94.194-4.942.908-6.416c.5-3.529 1.307-8.757 1.794-11.617.485-2.86 1.331-7.697 1.879-10.75.547-3.053 1.414-7.812 1.925-10.578l.932-5.027.032-4.344.03-4.344-.981-2.007-.982-2.008-1.331-1.278-1.333-1.279-2.185-1.106-2.188-1.108-3.259-.726-3.259-.726-4.486-.34-4.487-.342-5.778.358c-3.181.196-7.652.584-9.941.862l-4.162.505-2.836.011-2.836.011-.413 1.995c-.227 1.096-.858 3.701-1.401 5.79-.545 2.088-.938 3.847-.877 3.908s1.578-.283 3.37-.765c1.792-.483 5.601-1.275 8.462-1.764l5.201-.886 4.682-.192 4.682-.193 3.016.529 3.017.528 2.012.993 2.013.994 1.127 1.68 1.128 1.68-.016 2.647-.017 2.649-.598 2.905-.598 2.907-12.479.045-12.478.044-4.083 1.12c-2.246.616-4.733 1.434-5.527 1.816-.794.385-1.588.699-1.765.699-.176 0-1.512.739-2.969 1.646l-2.648 1.645-2.085 2.082c-1.148 1.146-2.613 2.862-3.257 3.816-.645.953-1.691 2.945-2.325 4.427l-1.154 2.693-.529 3.028-.53 3.028v6.355l.505 2.646.507 2.646.938 1.725c.517.948 1.466 2.339 2.106 3.089l1.168 1.364 2.073 1.26 2.074 1.261 2.375.67c1.306.369 3.293.817 4.417.996l2.042.321 4.682-.134h-.001zm4.335-9.699-2.774.146-1.838-.469c-1.01-.257-2.544-.83-3.407-1.274l-1.569-.808-.858-1.019c-.471-.562-1.19-1.661-1.6-2.446l-.743-1.428-.145-3.333-.147-3.334.588-2.022c.323-1.111 1.082-3.043 1.687-4.289l1.098-2.267 2.104-2.087 2.102-2.088 2.232-1.075 2.231-1.073 2.774-.66 2.774-.66h17.34l.549.228.548.226-.461 2.723c-.254 1.496-.859 4.203-1.347 6.015-.485 1.813-1.344 4.476-1.906 5.919-.563 1.444-1.024 2.721-1.024 2.836 0 .117-.57 1.168-1.267 2.338l-1.267 2.127-2.079 2.061c-1.143 1.132-2.206 2.059-2.359 2.059s-.854.392-1.558.868l-1.277.866-2.813.891-2.812.889zm112.88 9.822 3.294.042 3.122-.507c1.717-.278 3.901-.727 4.855-.997.953-.271 2.671-.97 3.813-1.556l2.082-1.066 1.79-1.576 1.789-1.576 1.886-2.513c1.037-1.383 1.976-2.748 2.086-3.035l.201-.521-.175 1.734c-.124 1.161-.284 2.317-.479 3.469-.169.953-.407 2.787-.533 4.074l-.23 2.34h13.606v-4.681l1.036-8.844c.569-4.864 1.413-11.339 1.873-14.392s1.171-7.42 1.58-9.709c.406-2.289 1.13-6.426 1.604-9.19.476-2.765 1.334-7.604 1.908-10.75.573-3.148 1.492-8.142 2.041-11.097.548-2.957 1.401-7.562 1.895-10.231s1.377-7.353 1.964-10.403c.615-3.184 1.25-6.363 1.906-9.537.462-2.192.839-4.105.838-4.248v-.261h-14.844l-.219 2.168c-.12 1.192-.689 5.132-1.262 8.757-.681 4.279-1.374 8.556-2.08 12.83-.411 2.466-.817 4.932-1.22 7.399l-.186 1.155-.585-.248c-.322-.137-2.069-.622-3.88-1.077l-3.294-.827-4.508-.352-4.51-.351-3.814.354-3.814.356-3.468.877-3.468.876-3.294 1.607-3.296 1.607-2.428 1.795-2.427 1.797-2.097 2.25c-1.153 1.235-2.818 3.281-3.702 4.543l-1.604 2.297-1.886 3.922c-1.036 2.158-2.298 5.015-2.803 6.35-.506 1.336-1.396 4.295-1.981 6.577l-1.061 4.15-.523 5.388-.522 5.387.392 4.334.395 4.336.463 1.56c.257.858.794 2.388 1.196 3.397l.732 1.84 1.335 1.806 1.336 1.808 1.524 1.248 1.523 1.249 2.081 1.034c1.146.566 3.064 1.302 4.267 1.631 1.2.329 3.151.725 4.335.878 1.183.156 3.632.301 5.445.323zm5.913-9.837-2.619.137-1.766-.317c-.972-.175-2.527-.645-3.457-1.043l-1.689-.723-1.422-1.166-1.421-1.164-1.056-2.023-1.057-2.022-.482-2.254-.48-2.255.041-4.508.04-4.508.56-3.989.559-3.987.869-2.773c.479-1.526.872-2.967.874-3.201.004-.232.474-1.48 1.049-2.772.672-1.495 1.382-2.973 2.13-4.431.599-1.145 1.717-2.928 2.483-3.965.769-1.035 2.138-2.596 3.042-3.469.904-.869 2.341-2.014 3.196-2.539l1.552-.955 2.727-.943 2.727-.944 5.722-.003h5.722l3.294.915c1.813.502 3.737 1.085 4.276 1.295l.981.382-.191.951c-.104.524-.518 2.825-.916 5.113-.398 2.289-1.184 6.659-1.745 9.711s-1.423 7.656-1.916 10.23c-.492 2.574-1.205 5.852-1.585 7.281-.39 1.47-.786 2.938-1.189 4.403-.275.991-.93 2.709-1.454 3.815-.525 1.106-1.444 2.715-2.042 3.572-.599.858-1.608 2.049-2.246 2.643-.639.596-2.02 1.652-3.068 2.349l-1.907 1.269-2.757.875-2.757.875zm-510.38 8.149h8.425l.605-3.727c.332-2.051.982-5.992 1.443-8.757l1.907-11.444c.588-3.529 1.47-8.757 1.959-11.617.489-2.861 1.267-7.299 1.727-9.861.461-2.565.926-4.75 1.032-4.856l.195-.194h45.313l.252.252.252.252-.394 2.002c-.215 1.102-.854 4.498-1.419 7.551-.565 3.052-1.515 8.201-2.112 11.445-.627 3.412-1.265 6.821-1.914 10.229-.458 2.384-1.384 7.377-2.058 11.097-.673 3.719-1.223 6.957-1.221 7.196l.004.433h16.921l.374-2.166c.207-1.192.537-3.338.737-4.769.198-1.431.679-4.476 1.066-6.763.387-2.288 1.16-6.815 1.719-10.057.558-3.242 1.494-8.783 2.078-12.312s1.45-8.679 1.926-11.443c.602-3.472 1.229-6.94 1.88-10.403.559-2.957 1.491-7.95 2.071-11.099.58-3.146 1.447-7.905 1.929-10.577.482-2.67 1.36-7.508 1.952-10.75s1.339-7.025 1.66-8.41l.584-2.514h-17.133l-.233 1.648c-.127.904-.541 3.441-.919 5.635-.379 2.193-1.065 6.094-1.527 8.669-.462 2.576-1.306 7.491-1.876 10.925-.559 3.363-1.097 6.729-1.614 10.1l-.578 3.856-12.575.255-12.576.254-10.532-.25c-5.793-.137-10.565-.277-10.605-.31-.039-.034.158-1.381.438-2.995.369-2.081.762-4.157 1.179-6.229.532-2.656 1.049-5.315 1.55-7.978.485-2.574 1.033-5.772 1.22-7.108.186-1.334.577-3.559.868-4.942.291-1.382.843-4.295 1.227-6.472.383-2.178.792-4.207.909-4.508l.21-.551h-16.995l-.543 3.035c-.3 1.669-.699 4.048-.887 5.288-.189 1.239-.822 5.219-1.407 8.843s-1.449 9.008-1.92 11.964l-1.903 11.964c-.669 4.168-1.375 8.329-2.116 12.484-.617 3.412-1.246 6.822-1.887 10.23-.451 2.385-1.31 6.91-1.91 10.058-.629 3.298-1.278 6.593-1.945 9.884-.47 2.288-.989 4.941-1.153 5.895-.166.953-.702 3.705-1.194 6.113-.491 2.407-.893 4.631-.893 4.941v.562h8.427zm93.278 0h7.459l.21-.548c.117-.303.211-1.094.211-1.758 0-.666.47-4.126 1.042-7.688 1.309-8.118 2.65-16.23 4.024-24.338.589-3.416 1.208-6.826 1.859-10.23.552-2.86 1.4-7.309 1.884-9.882.483-2.575 1.435-7.474 2.114-10.888.679-3.412 1.319-6.341 1.422-6.508l.189-.305-7.543.093-7.543.093-.63 4.51c-.344 2.479-1.1 7.396-1.678 10.923-.577 3.528-1.451 8.914-1.942 11.964-.594 3.648-1.228 7.29-1.9 10.925-.555 2.956-1.405 7.481-1.89 10.056-.484 2.576-1.353 7.102-1.931 10.058-.578 2.957-1.353 6.858-1.723 8.67-.371 1.813-.768 3.646-.884 4.075l-.209.779h7.459zm174.46 0h7.403l.223-3.133c.123-1.722.541-5.195.931-7.716s1.189-7.548 1.774-11.171c.74-4.48 1.546-8.949 2.418-13.406.746-3.748 1.587-7.474 1.871-8.279s.517-1.678.517-1.938c0-.263.557-1.687 1.237-3.165.68-1.479 1.947-3.743 2.817-5.032l1.581-2.344 2.115-1.96 2.116-1.958 2.608-1.246 2.609-1.247 3.989.021 3.986.021 1.961.585c1.078.322 2.054.586 2.167.586.114 0 .207-.368.207-.819 0-.449.391-2.733.867-5.075.477-2.341.867-4.355.867-4.476s-1.131-.564-2.514-.984-3.295-.86-4.248-.979l-1.734-.214-2.254.398c-1.24.22-3.083.703-4.096 1.076-1.015.373-2.688 1.217-3.72 1.877-1.03.66-2.636 1.946-3.564 2.857-.931.912-2.495 2.751-3.477 4.086-.764 1.037-1.524 2.078-2.28 3.121l-.496.693.301-1.387c.166-.764.628-3.261 1.026-5.549.397-2.289.809-4.436.908-4.768l.186-.608h-13.226v.837c0 .459-.391 3.229-.866 6.154-.478 2.928-1.265 7.816-1.748 10.869-.484 3.052-1.345 8.357-1.91 11.791-.604 3.646-1.24 7.288-1.911 10.923-1.305 6.942-2.64 13.878-4.005 20.808-.584 2.957-1.283 6.447-1.552 7.76-.271 1.31-.491 2.519-.491 2.686v.305zm175.76 0h7.57v-4.634l.871-5.746c.481-3.159 1.272-8.165 1.761-11.12.487-2.957 1.095-6.701 1.35-8.324.256-1.62.933-5.131 1.503-7.801.573-2.672 1.286-5.558 1.587-6.416.302-.858.549-1.76.552-2.002.005-.242.649-1.8 1.435-3.462l1.429-3.022 1.887-2.506 1.885-2.504 2.062-1.551c1.134-.854 2.959-1.984 4.056-2.516l1.991-.965 4.334.029 4.335.031 1.707.547 1.706.549.288-.179.287-.178.017-1.106c.007-.608.378-2.873.823-5.033l.812-3.926-.912-.356c-.874-.323-1.756-.624-2.646-.902l-1.733-.547-3.121.009-3.121.008-2.544.896-2.544.894-1.91 1.152-1.909 1.152-2.483 2.601-2.483 2.601-1.334 2.018c-.733 1.109-1.379 1.968-1.435 1.907-.057-.061.343-2.373.886-5.138.543-2.767.995-5.381 1.003-5.81l.015-.781h-12.831v.222c0 .121-.319 2.346-.711 4.941-.391 2.598-1.177 7.608-1.744 11.137-.682 4.221-1.373 8.44-2.072 12.658-.608 3.646-1.247 7.288-1.915 10.924-.481 2.574-1.336 7.101-1.9 10.057-.563 2.957-1.49 7.717-2.058 10.578l-1.673 8.408-.641 3.207h7.568zm-335.55-84.623 2.104.008 1.674-.57 1.675-.57 1.481-1.503 1.482-1.502.779-2.003.781-2.002.027-2.948.028-2.946-.693-1.151-.694-1.151-1.207-.746-1.208-.748h-5.214l-1.775.795-1.775.793-1.03 1.104-1.03 1.104-.81 1.908-.809 1.906-.153 2.971-.152 2.971.752 1.478.754 1.476 1.454.66 1.453.659z" fill="#b3131b" /></svg><svg enable-background="new 0 0 780 500" height="500" viewBox="0 0 780 500" width="780" xmlns="http://www.w3.org/2000/svg" x="2340"><path d="m41.68 0h698.14c23.027 0 41.68 18.983 41.68 42.42v414.66c0 23.437-18.652 42.42-41.68 42.42h-698.14c-23.028 0-41.68-18.983-41.68-42.42v-414.66c0-23.437 18.652-42.42 41.68-42.42z" /><path d="m167.25 181.4c6.8-2.3 14.1-3.5 21.7-3.5 33.2 0 60.9 23.601 67.2 54.9l47-9.6c-10.8-53.2-57.8-93.301-114.2-93.301-12.9 0-25.3 2.101-36.9 6z" fill="#fff100" /><path d="m111.75 333.8 31.8-36c-14.2-12.6-23.1-30.9-23.1-51.4 0-20.399 8.9-38.8 23.1-51.3l-31.8-35.899c-24.1 21.399-39.3 52.5-39.3 87.3 0 34.699 15.2 65.898 39.3 87.299z" fill="#00a3df" /><path d="m256.15 260.2c-6.4 31.3-34 54.8-67.2 54.8-7.6 0-14.9-1.2-21.8-3.5l-15.2 45.5c11.6 3.899 24.1 6 37 6 56.4 0 103.4-40 114.2-93.2z" fill="#ee4023" /><path d="m459.75 292.4c-7.8 7.601-18.3 12.2-29.9 12-8-.1-15.399-2.5-21.6-6.5l-15.601 24.801c10.7 6.699 23.2 10.699 36.801 10.899 19.699.3 37.699-7.5 50.8-20.2zm-28.2-101.1c-39.2-.6-71.6 30.8-72.2 70-.2 14.7 4 28.5 11.5 39.9l128.8-55.101c-7.2-30.899-34.8-54.2-68.1-54.799m-42.7 75.599c-.2-1.6-.3-3.3-.3-5 .4-23.1 19.4-41.6 42.5-41.199 12.6.199 23.8 5.899 31.3 14.899zm151.3-107.6v137.3l23.801 9.9-11.301 27.1-23.6-9.8c-5.3-2.3-8.9-5.8-11.6-9.8-2.601-4-4.601-9.601-4.601-17v-137.7zm85.901 63.5c4.2-1.4 8.6-2.1 13.3-2.1 20.3 0 37.101 14.399 41 33.5l28.7-5.9c-6.6-32.5-35.3-56.9-69.7-56.9-7.899 0-15.5 1.301-22.5 3.601zm-33.901 92.9 19.4-21.9c-8.7-7.7-14.1-18.9-14.1-31.4s5.5-23.699 14.1-31.3l-19.4-21.899c-14.699 13-24 32.1-24 53.3s9.301 40.199 24 53.199zm88.201-44.801c-3.899 19.101-20.8 33.5-41 33.5-4.6 0-9.1-.8-13.3-2.199l-9.3 27.8c7.1 2.399 14.7 3.7 22.6 3.7 34.4 0 63.101-24.4 69.7-56.9z" fill="#fff" /></svg></svg>