<svg xmlns="http://www.w3.org/2000/svg" width="48" height="48" viewBox="0 0 48 48">
<path fill="#222" d="M24 0C10.7 0 0 10.7 0 24s10.7 24 24 24s24-10.7 24-24S37.3 0 24 0zm12 21.6c-2.5 2.5-5.1 4.7-8.4 6.4v5.6c0 1.4-.9 2.7-2.1 2.7H16c-1.2 0-2.1-1.3-2.1-2.7v-5.6c-3.3-1.7-6-3.9-8.4-6.4C4.1 24 2 22.1 2 19.6v-8.4c0-2.5 2.1-4.6 4.6-4.6h36c2.5 0 4.6 2.1 4.6 4.6v8.4c0 2.5-2.1 4.6-4.6 4.6zM24 12.6c-3.9 0-7 3.1-7 7s3.1 7 7 7s7-3.1 7-7s-3.1-7-7-7z" />
<path fill="#FFF" d="M26.6 20.1c.8-.8 2-.8 2.8 0l4.2 4.2c.8.8.8 2 0 2.8l-4.2 4.2c-.8.8-2 .8-2.8 0l-4.2-4.2c-.8-.8-.8-2 0-2.8l4.2-4.2z" />
<text fill="#FFF" font-family="sans-serif" font-size="12" font-weight="bold" text-anchor="middle" x="24" y="34">deep-space-store</text>
</svg>